<svg width="32" height="32" viewBox="0 0 32 32" xmlns="http://www.w3.org/2000/svg">
  <!-- Background circle with brand color -->
  <circle cx="16" cy="16" r="16" fill="#ED1C24"/>
  
  <!-- Cropped face area from the original photo -->
  <defs>
    <clipPath id="faceClip">
      <circle cx="16" cy="16" r="15"/>
    </clipPath>
  </defs>
  
  <!-- Simulate the face area from the original photo with larger scale -->
  <g clip-path="url(#faceClip)">
    <!-- Face background -->
    <ellipse cx="16" cy="18" rx="12" ry="14" fill="#F4C2A1"/>
    
    <!-- Hair (black, covering top portion) -->
    <path d="M4 16 C4 8, 12 4, 16 4 C20 4, 28 8, 28 16 C28 12, 24 8, 16 8 C8 8, 4 12, 4 16 Z" fill="#1A1A1A"/>
    
    <!-- Eyes -->
    <ellipse cx="12" cy="16" rx="1.5" ry="2" fill="#2C1810"/>
    <ellipse cx="20" cy="16" rx="1.5" ry="2" fill="#2C1810"/>
    <!-- Eye highlights -->
    <circle cx="12.5" cy="15.5" r="0.7" fill="#FFFFFF" opacity="0.8"/>
    <circle cx="20.5" cy="15.5" r="0.7" fill="#FFFFFF" opacity="0.8"/>
    
    <!-- Eyebrows -->
    <path d="M10 14 Q12 13 14 14" stroke="#2C1810" stroke-width="1" fill="none"/>
    <path d="M18 14 Q20 13 22 14" stroke="#2C1810" stroke-width="1" fill="none"/>
    
    <!-- Nose -->
    <path d="M15 18 L17 18 C16.8 20 16.2 20 16 20 C15.8 20 15.2 20 15 18 Z" fill="#E6B896"/>
    
    <!-- Mouth (friendly smile) -->
    <path d="M13 23 Q16 25 19 23" stroke="#8B4513" stroke-width="1.5" fill="none"/>
  </g>
</svg>